<svg xmlns="http://www.w3.org/2000/svg" viewBox="0 0 165.27 165.27"><path d="M137.25,145.29a24.11,24.11,0,0,1-17.16-7.1L95.3,113.4a4.71,4.71,0,0,0-6.52,0L63.9,138.28a24.12,24.12,0,0,1-17.16,7.11H41.85l31.4,31.39a25.11,25.11,0,0,0,35.5,0l31.49-31.49Z" transform="translate(-8.37 -18.87)"/><path d="M46.74,57.61A24.12,24.12,0,0,1,63.9,64.72L88.78,89.61a4.62,4.62,0,0,0,6.52,0l24.78-24.79a24.16,24.16,0,0,1,17.17-7.11h3L108.75,26.22a25.11,25.11,0,0,0-35.5,0L41.85,57.61Z" transform="translate(-8.37 -18.87)"/><path d="M166.28,83.75l-19-19a3.57,3.57,0,0,1-1.35.27h-8.65a17.11,17.11,0,0,0-12,5L100.45,94.76a11.9,11.9,0,0,1-16.82,0L58.75,69.88a17.11,17.11,0,0,0-12-5H36.1a3.44,3.44,0,0,1-1.28-.26L15.72,83.75a25.09,25.09,0,0,0,0,35.5l19.1,19.11a3.44,3.44,0,0,1,1.28-.26H46.74a17.11,17.11,0,0,0,12-5l24.88-24.88a12.19,12.19,0,0,1,16.82,0L125.24,133a17.11,17.11,0,0,0,12,5h8.65a3.57,3.57,0,0,1,1.35.27l19-19a25.09,25.09,0,0,0,0-35.5" transform="translate(-8.37 -18.87)"/></svg>